# xmcd
#
# Track frame offsets: 
#        150
#        14922
#        32815
#        52312
#        64216
#        96313
#        120385
#        137395
#        155447
#        172190
#        189867
#        206750
#        237194
#        251423
#        269773
#
# Disc length: 3741 seconds
#
# Revision: 0
# Processed by: cddbd v1.5.2PL0 Copyright (c) Steve Scherf et al.
# Submitted via: ExactAudioCopy v1.0b1
#
DISCID=df0e9b0f
DTITLE=Chicago Line - Maybe Someday
DYEAR=2011
DGENRE=Blues
TTITLE0=Footprint On The Ceiling
TTITLE1=Don't Try
TTITLE2=24 Hours
TTITLE3=Didn't We
TTITLE4=Slippin' And Slidin'
TTITLE5=Maybe Someday
TTITLE6=Bitter Pill
TTITLE7=Bad Side Baby
TTITLE8=I'm Lost Without You
TTITLE9=Do I Move You
TTITLE10=Just A Little Bit
TTITLE11=Learning How To Cheat On You
TTITLE12=Now Can People Act Like That
TTITLE13=Nature's Disappearing
TTITLE14=Believe What I Said
EXTD=
EXTT0=
EXTT1=
EXTT2=
EXTT3=
EXTT4=
EXTT5=
EXTT6=
EXTT7=
EXTT8=
EXTT9=
EXTT10=
EXTT11=
EXTT12=
EXTT13=
EXTT14=
PLAYORDER=
